<?xml version="1.0" encoding="UTF-8" standalone="no"?>
<!-- Created with Inkscape (http://www.inkscape.org/) -->
<svg id="svg2" xmlns:rdf="http://www.w3.org/1999/02/22-rdf-syntax-ns#" xmlns="http://www.w3.org/2000/svg" height="147.83" width="143.77" version="1.1" xmlns:cc="http://creativecommons.org/ns#" xmlns:dc="http://purl.org/dc/elements/1.1/">
 <metadata id="metadata7">
  <rdf:RDF>
   <cc:Work rdf:about="">
    <dc:format>image/svg+xml</dc:format>
    <dc:type rdf:resource="http://purl.org/dc/dcmitype/StillImage"/>
    <dc:title/>
   </cc:Work>
  </rdf:RDF>
 </metadata>
 <g id="layer1" font-size="27px" transform="translate(-129.30528,-382.36887)" font-style="normal" font-stretch="normal" font-variant="normal" font-weight="normal">
  <flowRoot id="flowRoot2985" style="letter-spacing:0px;word-spacing:0px;" xml:space="preserve" line-height="125%" font-family="Source Sans Pro" fill="#000000"><flowRegion id="flowRegion2987"><rect id="rect2989" height="182.86" width="348.57" y="380.93" x="82.857"/></flowRegion><flowPara id="flowPara2991" font-weight="bold"/></flowRoot>
  <g id="text2993" style="letter-spacing:0px;word-spacing:0px;" line-height="85.79999804000000552%" font-family="Liberation Sans" fill="#EEE">
   <path id="path4063" d="m130.77,425.93,0-29.928,7.2407,0,0.60339,3.8617,0.24136,0c1.247-1.247,2.5744-2.313,3.9824-3.198,1.4079-0.92517,3.0974-1.3878,5.0685-1.3878,2.132,0.00003,3.8416,0.44252,5.1288,1.3275,1.3274,0.84477,2.3733,2.0717,3.1376,3.6807,1.3274-1.3677,2.7152-2.5342,4.1634-3.4997,1.4883-1.0056,3.2382-1.5084,5.2495-1.5085,3.218,0.00003,5.5712,1.0861,7.0597,3.2583,1.5285,2.132,2.2928,5.0685,2.2929,8.8095v18.584h-8.8698v-17.438c-0.00004-2.1722-0.30174-3.6605-0.90509-4.4651-0.5632-0.8045-1.4884-1.2068-2.7756-1.2068-1.4884,0.00002-3.198,0.96544-5.1288,2.8963v20.214h-8.8698v-17.438c-0.00002-2.1722-0.30172-3.6605-0.90508-4.4651-0.56319-0.8045-1.4884-1.2068-2.7756-1.2068-1.5286,0.00002-3.2181,0.96544-5.0685,2.8963v20.214h-8.8698"/>
   <path id="path4065" d="m187.96,425.93,0-29.928,8.8698,0,0,29.928-8.8698,0m4.4048-34.333c-1.4884,0.00004-2.7153-0.42234-3.6807-1.2671-0.96543-0.88493-1.4481-2.0113-1.4481-3.379-0.00001-1.3676,0.4827-2.4739,1.4481-3.3186,0.96542-0.8447,2.1923-1.2671,3.6807-1.2671,1.5286,0.00004,2.7555,0.42241,3.6807,1.2671,0.96541,0.84479,1.4481,1.951,1.4481,3.3186-0.00002,1.3677-0.48273,2.494-1.4481,3.379-0.92521,0.84478-2.1521,1.2672-3.6807,1.2671"/>
   <path id="path4067" d="m210.29,425.93,0-42.298,8.6285,0,0,24.256,0.24136,0,9.4732-11.887,9.6542,0-10.499,12.309,11.283,17.619-9.5939,0-6.758-11.645-3.8014,4.2841,0,7.3614-8.6285,0"/>
   <path id="path4069" d="m260.12,426.66c-2.132,0-4.1232-0.34192-5.9736-1.0258-1.8504-0.72407-3.4594-1.7498-4.8271-3.0773-1.3677-1.3677-2.4337-3.0169-3.198-4.9478-0.7643-1.9308-1.1464-4.1433-1.1464-6.6373,0-2.4135,0.40225-4.5857,1.2068-6.5166,0.80451-1.971,1.8504-3.6203,3.1376-4.9478,1.3274-1.3676,2.8359-2.4135,4.5254-3.1376,1.6895-0.72403,3.4393-1.0861,5.2495-1.0861,2.132,0.00003,3.9824,0.36207,5.5512,1.0861,1.609,0.7241,2.9365,1.7298,3.9824,3.017,1.0861,1.2873,1.8906,2.8158,2.4136,4.5858,0.5229,1.7297,0.78437,3.6204,0.7844,5.6719-0.00003,0.80454-0.0403,1.5688-0.12068,2.2929-0.0805,0.72408-0.16093,1.2671-0.24135,1.6292h-17.921c0.40224,2.1722,1.2872,3.7812,2.6549,4.8271,1.4079,1.0057,3.1175,1.5085,5.1288,1.5085,2.132,0.00001,4.284-0.66372,6.4563-1.9912l2.9566,5.3702c-1.5286,1.0459-3.2382,1.8705-5.1288,2.4739-1.8504,0.60339-3.6807,0.90508-5.4908,0.90508m-6.6373-18.946,10.801,0c-0.00002-1.6895-0.38217-3.0572-1.1464-4.1031-0.76432-1.0458-2.0516-1.5688-3.8617-1.5688-1.4079,0.00002-2.6549,0.46262-3.741,1.3878-1.0459,0.92522-1.7297,2.3532-2.0515,4.2841"/>
   <path id="path4071" d="m133.79,477.7,0-22.989-3.9824,0,0-6.577,3.9824-0.3017,0-1.6292c-0.00001-1.5688,0.18101-3.0571,0.54305-4.4651,0.40225-1.4079,1.0459-2.6348,1.9308-3.6807,0.88497-1.0458,2.0314-1.8705,3.4393-2.4739,1.4079-0.60334,3.1175-0.90504,5.1288-0.90508,1.247,0.00004,2.3733,0.12072,3.379,0.36203,1.0458,0.2414,1.9107,0.48276,2.5946,0.72407l-1.6292,6.5166c-1.1264-0.40222-2.1521-0.60335-3.0773-0.60339-1.0861,0.00004-1.9309,0.34196-2.5342,1.0258-0.6034,0.64365-0.9051,1.7298-0.90508,3.2583v1.8102h5.3702v6.939h-5.3702v22.989h-8.8698"/>
   <path id="path4073" d="m165.17,478.43c-1.8906,0-3.7209-0.34192-5.4908-1.0258-1.77-0.72407-3.3388-1.7498-4.7064-3.0773-1.3275-1.3274-2.3934-2.9566-3.198-4.8875-0.80452-1.9711-1.2068-4.2036-1.2068-6.6976s0.40226-4.7064,1.2068-6.6373c0.80452-1.971,1.8705-3.6203,3.198-4.9478,1.3677-1.3274,2.9365-2.3331,4.7064-3.017,1.7699-0.72404,3.6002-1.0861,5.4908-1.0861,1.8906,0.00003,3.7008,0.36207,5.4305,1.0861,1.7699,0.68387,3.3186,1.6895,4.6461,3.017,1.3677,1.3275,2.4538,2.9767,3.2583,4.9478,0.80449,1.9309,1.2068,4.1433,1.2068,6.6373-0.00003,2.494-0.40229,4.7266-1.2068,6.6976-0.80455,1.9309-1.8906,3.56-3.2583,4.8875-1.3275,1.3275-2.8762,2.3532-4.6461,3.0773-1.7297,0.68384-3.5399,1.0258-5.4305,1.0258m0-7.1803c1.8102,0.00001,3.1778-0.76428,4.103-2.2929,0.92518-1.5286,1.3878-3.6002,1.3878-6.2149-0.00002-2.6147-0.46262-4.6863-1.3878-6.2149-0.92522-1.5286-2.2929-2.2929-4.103-2.2929-1.8504,0.00003-3.2382,0.76432-4.1634,2.2929-0.88498,1.5286-1.3275,3.6002-1.3275,6.2149-0.00001,2.6147,0.44248,4.6863,1.3275,6.2149,0.92518,1.5286,2.313,2.2929,4.1634,2.2929"/>
   <path id="path4075" d="m198.64,478.43c-1.8906,0-3.7209-0.34192-5.4908-1.0258-1.77-0.72407-3.3388-1.7498-4.7064-3.0773-1.3275-1.3274-2.3934-2.9566-3.198-4.8875-0.80452-1.9711-1.2068-4.2036-1.2068-6.6976s0.40226-4.7064,1.2068-6.6373c0.80452-1.971,1.8705-3.6203,3.198-4.9478,1.3677-1.3274,2.9365-2.3331,4.7064-3.017,1.7699-0.72404,3.6002-1.0861,5.4908-1.0861,1.8906,0.00003,3.7008,0.36207,5.4305,1.0861,1.7699,0.68387,3.3186,1.6895,4.6461,3.017,1.3677,1.3275,2.4538,2.9767,3.2583,4.9478,0.80449,1.9309,1.2068,4.1433,1.2068,6.6373-0.00003,2.494-0.40229,4.7266-1.2068,6.6976-0.80455,1.9309-1.8906,3.56-3.2583,4.8875-1.3275,1.3275-2.8762,2.3532-4.6461,3.0773-1.7297,0.68384-3.5399,1.0258-5.4305,1.0258m0-7.1803c1.8102,0.00001,3.1778-0.76428,4.103-2.2929,0.92518-1.5286,1.3878-3.6002,1.3878-6.2149-0.00002-2.6147-0.46262-4.6863-1.3878-6.2149-0.92522-1.5286-2.2929-2.2929-4.103-2.2929-1.8504,0.00003-3.2382,0.76432-4.1634,2.2929-0.88499,1.5286-1.3275,3.6002-1.3275,6.2149-0.00001,2.6147,0.44247,4.6863,1.3275,6.2149,0.92518,1.5286,2.313,2.2929,4.1634,2.2929"/>
   <path id="path4077" d="m218.54,477.7,0-42.298,8.6285,0,0,24.256,0.24136,0,9.4732-11.887,9.6542,0-10.499,12.309,11.283,17.619-9.5939,0-6.758-11.645-3.8014,4.2841,0,7.3614-8.6285,0"/>
   <path id="path4079" d="m260.68,478.43c-1.9711,0-4.0025-0.38214-6.0942-1.1464-2.0515-0.76429-3.8416-1.7699-5.3702-3.017l3.9824-5.5512c1.3677,1.0459,2.675,1.8303,3.922,2.3532,1.247,0.52294,2.5141,0.78441,3.8014,0.7844,1.3274,0.00001,2.2929-0.22123,2.8963-0.66373,0.60337-0.44248,0.90507-1.066,0.90508-1.8705-0.00001-0.4827-0.18103-0.90507-0.54305-1.2671-0.32182-0.40225-0.78442-0.76429-1.3878-1.0861-0.56318-0.32179-1.2068-0.60338-1.9308-0.84474-0.72408-0.28157-1.4683-0.58327-2.2325-0.90509-0.92521-0.36202-1.8504-0.78439-2.7756-1.2671-0.9252-0.48269-1.77-1.066-2.5342-1.7498-0.7643-0.72405-1.3878-1.5487-1.8705-2.4739-0.48271-0.9654-0.72407-2.0716-0.72406-3.3186-0.00001-1.3677,0.26146-2.6348,0.7844-3.8014,0.56316-1.1665,1.3476-2.1521,2.3532-2.9566,1.0056-0.80449,2.2124-1.428,3.6203-1.8705,1.4079-0.48268,2.9767-0.72404,4.7064-0.72407,2.2929,0.00003,4.3042,0.40229,6.0339,1.2068,1.7297,0.76433,3.2382,1.6292,4.5254,2.5946l-3.9824,5.3098c-1.0861-0.8045-2.1521-1.428-3.198-1.8705-1.0459-0.44246-2.0918-0.6637-3.1376-0.66373-2.2527,0.00003-3.379,0.78443-3.379,2.3532-0.00001,0.48273,0.16089,0.9051,0.48271,1.2671,0.3218,0.32183,0.74417,0.62353,1.2671,0.90509,0.56315,0.2816,1.1866,0.56318,1.8705,0.84475,0.72405,0.24137,1.4682,0.50284,2.2325,0.7844,0.96541,0.36205,1.9107,0.78443,2.8359,1.2671,0.96541,0.4425,1.8303,1.0057,2.5946,1.6895,0.8045,0.68386,1.4481,1.5286,1.9308,2.5342,0.48269,0.96544,0.72404,2.132,0.72407,3.4997-0.00003,1.3677-0.2615,2.6348-0.78441,3.8014-0.52296,1.1666-1.3074,2.1923-2.3532,3.0773-1.0459,0.84475-2.3331,1.5286-3.8617,2.0515-1.5286,0.48271-3.2985,0.72406-5.3098,0.72406"/>
   <path id="path4081" d="m138.17,530.2c-1.5286-0.00001-2.8158-0.52294-3.8617-1.5688-1.0056-1.0861-1.5085-2.4136-1.5085-3.9824,0-1.609,0.50282-2.9365,1.5085-3.9824,1.0459-1.0861,2.3331-1.6291,3.8617-1.6292,1.5286,0.00001,2.7957,0.54306,3.8014,1.6292,1.0459,1.0459,1.5688,2.3733,1.5688,3.9824-0.00001,1.5688-0.52295,2.8963-1.5688,3.9824-1.0057,1.0459-2.2728,1.5688-3.8014,1.5688"/>
   <path id="path4083" d="m168.92,530.2c-2.0918-0.00001-4.0427-0.34193-5.8529-1.0258-1.77-0.72406-3.3186-1.7498-4.6461-3.0773-1.3275-1.3274-2.3733-2.9566-3.1376-4.8875-0.7643-1.9711-1.1464-4.2036-1.1464-6.6976s0.42237-4.7064,1.2671-6.6373c0.84474-1.971,1.9711-3.6203,3.379-4.9478,1.4481-1.3274,3.1175-2.3331,5.0081-3.017,1.8906-0.72404,3.8617-1.0861,5.9132-1.0861,1.8504,0.00004,3.4795,0.30173,4.8875,0.90509,1.4481,0.60342,2.7353,1.3677,3.8617,2.2929l-4.1634,5.7322c-1.4079-1.1665-2.7555-1.7498-4.0427-1.7498-2.1722,0.00002-3.8818,0.76431-5.1288,2.2929s-1.8705,3.6002-1.8705,6.2149c-0.00001,2.6147,0.62349,4.6863,1.8705,6.2149,1.2872,1.5286,2.8962,2.2929,4.8271,2.2929,0.9654,0.00001,1.8906-0.20112,2.7756-0.60339,0.92518-0.44247,1.79-0.96541,2.5946-1.5688l3.4997,5.7925c-1.4884,1.2872-3.0974,2.2124-4.8271,2.7756-1.7297,0.52294-3.4192,0.7844-5.0685,0.78441"/>
   <path id="path4085" d="m203.29,530.2c-1.8906-0.00001-3.7209-0.34193-5.4908-1.0258-1.77-0.72406-3.3388-1.7498-4.7064-3.0773-1.3275-1.3274-2.3934-2.9566-3.198-4.8875-0.80453-1.9711-1.2068-4.2036-1.2068-6.6976-0.00001-2.494,0.40225-4.7064,1.2068-6.6373,0.80451-1.971,1.8705-3.6203,3.198-4.9478,1.3677-1.3274,2.9365-2.3331,4.7064-3.017,1.7699-0.72404,3.6002-1.0861,5.4908-1.0861,1.8906,0.00004,3.7008,0.36207,5.4305,1.0861,1.7699,0.68387,3.3186,1.6895,4.6461,3.017,1.3676,1.3275,2.4538,2.9767,3.2583,4.9478,0.80449,1.9309,1.2068,4.1433,1.2068,6.6373-0.00003,2.494-0.40229,4.7266-1.2068,6.6976-0.80455,1.9309-1.8906,3.56-3.2583,4.8875-1.3275,1.3275-2.8762,2.3532-4.6461,3.0773-1.7297,0.68384-3.5399,1.0258-5.4305,1.0258m0-7.1804c1.8102,0.00001,3.1778-0.76428,4.103-2.2929,0.92517-1.5286,1.3878-3.6002,1.3878-6.2149-0.00002-2.6147-0.46262-4.6863-1.3878-6.2149-0.92522-1.5286-2.2929-2.2929-4.103-2.2929-1.8504,0.00002-3.2382,0.76431-4.1634,2.2929-0.88498,1.5286-1.3275,3.6002-1.3274,6.2149-0.00002,2.6147,0.44247,4.6863,1.3274,6.2149,0.92519,1.5286,2.313,2.2929,4.1634,2.2929"/>
   <path id="path4087" d="m228.04,529.48,0-29.928,7.2407,0,0.60339,3.8617,0.24136,0c1.247-1.247,2.5744-2.313,3.9824-3.198,1.4079-0.92517,3.0974-1.3878,5.0685-1.3878,2.132,0.00004,3.8416,0.44252,5.1288,1.3275,1.3274,0.84478,2.3733,2.0717,3.1376,3.6807,1.3274-1.3677,2.7152-2.5342,4.1634-3.4997,1.4883-1.0056,3.2382-1.5084,5.2495-1.5085,3.218,0.00004,5.5712,1.0861,7.0597,3.2583,1.5285,2.132,2.2928,5.0685,2.2929,8.8095v18.584h-8.8698v-17.438c-0.00004-2.1722-0.30174-3.6606-0.90509-4.4651-0.5632-0.8045-1.4884-1.2068-2.7756-1.2068-1.4884,0.00002-3.198,0.96545-5.1288,2.8963v20.214h-8.8698v-17.438c-0.00002-2.1722-0.30172-3.6606-0.90508-4.4651-0.56319-0.8045-1.4884-1.2068-2.7756-1.2068-1.5286,0.00002-3.2181,0.96545-5.0685,2.8963v20.214h-8.8698"/>
  </g>
 </g>
</svg>
